<svg width="192" height="192" viewBox="0 0 192 192" fill="none" xmlns="http://www.w3.org/2000/svg">
<circle cx="96" cy="96" r="96" fill="white"/>
<path d="M59.94 157.2C58.8733 157.2 58.06 156.9 57.5 156.3C56.94 155.687 56.66 154.813 56.66 153.68V146.32C56.66 145.187 56.94 144.32 57.5 143.72C58.06 143.107 58.8733 142.8 59.94 142.8C61.0067 142.8 61.82 143.107 62.38 143.72C62.94 144.32 63.22 145.187 63.22 146.32V147.52H61.14V146.18C61.14 145.26 60.76 144.8 60 144.8C59.24 144.8 58.86 145.26 58.86 146.18V153.84C58.86 154.747 59.24 155.2 60 155.2C60.76 155.2 61.14 154.747 61.14 153.84V151.1H60.04V149.1H63.22V153.68C63.22 154.813 62.94 155.687 62.38 156.3C61.82 156.9 61.0067 157.2 59.94 157.2ZM64.6325 143H67.8925C69.0258 143 69.8525 143.267 70.3725 143.8C70.8925 144.32 71.1525 145.127 71.1525 146.22V147.08C71.1525 148.533 70.6725 149.453 69.7125 149.84V149.88C70.2458 150.04 70.6192 150.367 70.8325 150.86C71.0592 151.353 71.1725 152.013 71.1725 152.84V155.3C71.1725 155.7 71.1858 156.027 71.2125 156.28C71.2392 156.52 71.3058 156.76 71.4125 157H69.1725C69.0925 156.773 69.0392 156.56 69.0125 156.36C68.9858 156.16 68.9725 155.8 68.9725 155.28V152.72C68.9725 152.08 68.8658 151.633 68.6525 151.38C68.4525 151.127 68.0992 151 67.5925 151H66.8325V157H64.6325V143ZM67.6325 149C68.0725 149 68.3992 148.887 68.6125 148.66C68.8392 148.433 68.9525 148.053 68.9525 147.52V146.44C68.9525 145.933 68.8592 145.567 68.6725 145.34C68.4992 145.113 68.2192 145 67.8325 145H66.8325V149H67.6325ZM72.6989 143H78.6989V145H74.8989V148.7H77.9189V150.7H74.8989V155H78.6989V157H72.6989V143ZM79.9645 143H85.9645V145H82.1645V148.7H85.1845V150.7H82.1645V155H85.9645V157H79.9645V143ZM87.2302 143H89.9902L92.1302 151.38H92.1702V143H94.1302V157H91.8702L89.2302 146.78H89.1902V157H87.2302V143ZM95.7653 143H97.9653V155H101.585V157H95.7653V143ZM102.64 143H108.64V145H104.84V148.7H107.86V150.7H104.84V155H108.64V157H102.64V143ZM111.606 143H114.586L116.866 157H114.666L114.266 154.22V154.26H111.766L111.366 157H109.326L111.606 143ZM114.006 152.36L113.026 145.44H112.986L112.026 152.36H114.006ZM117.933 143H121.193C122.327 143 123.153 143.267 123.673 143.8C124.193 144.32 124.453 145.127 124.453 146.22V147.08C124.453 148.533 123.973 149.453 123.013 149.84V149.88C123.547 150.04 123.92 150.367 124.133 150.86C124.36 151.353 124.473 152.013 124.473 152.84V155.3C124.473 155.7 124.487 156.027 124.513 156.28C124.54 156.52 124.607 156.76 124.713 157H122.473C122.393 156.773 122.34 156.56 122.313 156.36C122.287 156.16 122.273 155.8 122.273 155.28V152.72C122.273 152.08 122.167 151.633 121.953 151.38C121.753 151.127 121.4 151 120.893 151H120.133V157H117.933V143ZM120.933 149C121.373 149 121.7 148.887 121.913 148.66C122.14 148.433 122.253 148.053 122.253 147.52V146.44C122.253 145.933 122.16 145.567 121.973 145.34C121.8 145.113 121.52 145 121.133 145H120.133V149H120.933ZM126 143H128.76L130.9 151.38H130.94V143H132.9V157H130.64L128 146.78H127.96V157H126V143Z" fill="#8DC53D"/>
<mask id="mask0_41_250" style="mask-type:alpha" maskUnits="userSpaceOnUse" x="65" y="28" width="61" height="101">
<path d="M125.165 100.697H99.2639L98.9481 53.173C98.9481 38.2636 106.845 36.3999 106.845 36.3999C106.845 36.3999 116.217 33.6122 116.005 36.3999C115.057 48.8245 111.666 48.8244 104.717 54.7261C97.7679 60.6277 118.216 58.4535 121.69 44.7864C125.179 31.0632 121.374 30.2417 120.111 29.7448C117.584 28.7509 109.161 29.2271 105.897 29.7448C97.053 31.9191 94.5261 39.1955 93.5785 41.3698C92.8204 43.1092 92.5256 53.8978 92.6309 59.6959L91.0515 58.4535C86.3136 53.4837 71.4681 53.4836 69.8888 54.7262C68.3095 55.9687 65.1509 61.5597 67.3619 70.2568C69.573 78.9539 81.2598 83.9237 82.5233 83.9237C83.7867 83.9237 84.4184 83.6131 84.4184 83.6131C85.0501 83.3025 86.3136 81.7494 86.3136 81.7494C86.3136 81.7494 89.1564 79.2645 82.5233 77.0902C75.8901 74.9159 71.784 61.8702 73.995 61.249C76.206 60.6277 90.7357 57.211 91.0515 74.2949V100.697H65.7827C63.5717 114.674 84.4081 130.625 99.2639 127.099C117.584 122.75 124.849 108.773 125.165 100.697Z" fill="black" stroke="black"/>
</mask>
<g mask="url(#mask0_41_250)">
<path d="M125.165 100.697H99.2639L98.9481 53.173C98.9481 38.2636 106.845 36.3999 106.845 36.3999C106.845 36.3999 116.217 33.6122 116.005 36.3999C115.057 48.8245 111.666 48.8244 104.717 54.7261C97.7679 60.6277 118.216 58.4535 121.69 44.7864C125.179 31.0632 121.374 30.2417 120.111 29.7448C117.584 28.7509 109.161 29.2271 105.897 29.7448C97.053 31.9191 94.5261 39.1955 93.5785 41.3698C92.8204 43.1092 92.5256 53.8978 92.6309 59.6959L91.0515 58.4535C86.3136 53.4837 71.4681 53.4836 69.8888 54.7262C68.3095 55.9687 65.1509 61.5597 67.3619 70.2568C69.573 78.9539 81.2598 83.9237 82.5233 83.9237C83.7867 83.9237 84.4184 83.6131 84.4184 83.6131C85.0501 83.3025 86.3136 81.7494 86.3136 81.7494C86.3136 81.7494 89.1564 79.2645 82.5233 77.0902C75.8901 74.9159 71.784 61.8702 73.995 61.249C76.206 60.6277 90.7357 57.211 91.0515 74.2949V100.697H65.7827C63.5717 114.674 84.4081 130.625 99.2639 127.099C117.584 122.75 124.849 108.773 125.165 100.697Z" stroke="black"/>
<path d="M58.3291 114.228H128.81" stroke="#C79C6B" stroke-width="40"/>
<path d="M89.9241 94.7848H99.6456" stroke="#8DC53D" stroke-width="15"/>
<path d="M38.8861 55.5258C42.4285 55.5258 45.9446 55.2987 49.4803 55.0961C59.1502 54.5422 68.8325 54.5982 78.5138 54.5456C90.3245 54.4813 102.153 54.1863 113.957 53.7801C114.555 53.7596 115.502 53.7851 116.13 53.6055C117.374 53.2495 113.553 53.8588 112.268 54.0084C97.4304 55.7343 83.1224 59.4445 68.9253 64.0665C63.4378 65.853 57.9963 67.7914 52.7256 70.1496C52.5249 70.2394 49.9797 71.3813 49.2791 71.8685C48.9239 72.1155 50.1446 71.8023 50.5665 71.7074C66.8839 68.0369 83.5845 66.7265 100.172 64.8453C109.036 63.8401 117.913 62.8347 126.738 61.515C128.907 61.1905 135.401 60.9683 137.278 58.8293C138.468 57.4728 132.047 57.3929 131.646 57.4193C129.218 57.579 126.84 58.1779 124.498 58.8024C117.614 60.6379 110.743 62.6148 103.926 64.6842C95.7132 67.1775 87.3912 69.7411 79.4257 72.9697C79.3125 73.0155 79.145 73.008 79.0904 73.1174C78.9343 73.4301 79.7887 73.0948 80.1364 73.0637C84.2791 72.6925 88.4234 72.4424 92.5813 72.3116C95.3747 72.2238 98.1683 72.2042 100.963 72.2042C102.159 72.2042 103.753 72.1295 101.539 72.8757C99.0258 73.7227 96.4129 74.2569 93.8418 74.89C88.851 76.1187 83.9207 77.522 78.9831 78.9454C77.4108 79.3987 75.822 79.8985 74.1956 80.1271C72.729 80.3332 74.2608 80.1783 74.732 80.1674C79.9647 80.047 85.0822 79.1695 90.2478 78.4083C91.3066 78.2522 92.7157 77.8829 93.815 77.9517C94.7134 78.0079 92.0885 78.4658 91.2134 78.6768C87.3466 79.6093 83.3108 80.0086 79.4793 81.0134C79.064 81.1223 80.2975 81.3185 80.7265 81.3357C84.4285 81.484 88.1545 81.3981 91.8571 81.3357C97.6084 81.2388 103.438 80.6972 109.183 81C110.517 81.0703 107.729 78.6793 107.574 78.5963C106.799 78.1817 105.766 77.9568 105.133 77.3071C104.066 76.2119 104.334 73.8925 104.315 72.5399C104.228 66.3103 104.517 59.9502 107.279 54.2367C110.171 48.2556 115.894 43.599 118.101 37.3166C119.658 32.8846 112.618 34.5602 110.484 34.8323C95.8637 36.6966 81.2345 38.5308 66.6188 40.432C63.4126 40.8491 60.2011 41.2812 57.0303 41.9226C56.3558 42.0591 54.9383 42.2476 56.7085 42.3658C60.4037 42.6124 64.1422 42.4655 67.8257 42.124C79.9328 41.0017 91.9231 38.5991 103.953 36.8869C118.859 34.7653 133.837 32.9102 148.851 31.7437C149.424 31.6992 151.142 31.5829 150.568 31.596C148.022 31.6539 145.466 31.8969 142.924 32.0257C127.178 32.8234 111.652 34.8131 96.0545 37.0749C90.7838 37.8392 85.2857 39.0892 79.9219 39.0892" stroke="#8DC53D" stroke-width="36"/>
<path d="M87.4937 100.861H102.076" stroke="#C79C6B"/>
<path d="M70.481 100.861H89.9241" stroke="#C79C6B"/>
<path d="M64.4051 99.6456H74.1266" stroke="#C79C6B"/>
<path d="M63.1899 100.861H71.6962" stroke="#C79C6B"/>
<path d="M99.6456 100.861H126.38" stroke="#C79C6B" stroke-width="12"/>
<path d="M99.6267 102.619C98.9352 102.652 98.2631 102.806 97.5653 102.82C96.7376 102.836 95.9145 102.867 95.0876 102.898C94.0723 102.936 93.0485 102.907 92.0332 102.907C90.4393 102.907 88.855 102.742 87.2607 102.742C86.5263 102.742 85.7919 102.742 85.0575 102.742C83.3804 102.742 81.6557 102.758 79.9898 102.559C79.2022 102.465 78.4068 102.495 77.615 102.495C77.358 102.495 77.101 102.495 76.844 102.495C76.6358 102.495 76.3621 102.451 76.1942 102.577" stroke="#C79C6B" stroke-width="4"/>
<path d="M65.4869 101.177H79.9418" stroke="#C79C6B" stroke-width="4"/>
<path d="M79.0358 100.518H90.402" stroke="#C79C6B" stroke-width="4"/>
<path d="M97.8971 102.701H102.098" stroke="#C79C6B" stroke-width="4"/>
<path d="M99.1737 93.9292H100.203" stroke="#8DC53D" stroke-width="4"/>
<path d="M99.2973 95.8647H100.409" stroke="#8DC53D" stroke-width="4"/>
<path d="M98.4325 97.2238H100.492" stroke="#8DC53D" stroke-width="4"/>
<path d="M100.327 96.606V100.106" stroke="#8DC53D" stroke-width="4"/>
</g>
</svg>
